<svg xmlns="http://www.w3.org/2000/svg" viewBox="0 0 64 64">
  <defs>
    <linearGradient id="g" x1="0" x2="1" y1="0" y2="1">
      <stop offset="0" stop-color="#6366f1"/>
      <stop offset="1" stop-color="#22c55e"/>
    </linearGradient>
  </defs>
  <rect x="4" y="4" width="56" height="56" rx="14" fill="url(#g)"/>
  <path d="M20 34c0-7.732 6.268-14 14-14s14 6.268 14 14v2c0 7.732-6.268 14-14 14s-14-6.268-14-14v-2z" fill="#0b1220" opacity="0.22"/>
  <path d="M22 33.5c0-6.627 5.373-12 12-12s12 5.373 12 12v1c0 6.627-5.373 12-12 12s-12-5.373-12-12v-1z" fill="#ffffff" opacity="0.92"/>
  <path d="M26 35c0-3.866 3.134-7 7-7h2c3.866 0 7 3.134 7 7s-3.134 7-7 7h-2c-3.866 0-7-3.134-7-7z" fill="#111827" opacity="0.1"/>
  <path d="M28 35c0-2.761 2.239-5 5-5h2c2.761 0 5 2.239 5 5s-2.239 5-5 5h-2c-2.761 0-5-2.239-5-5z" fill="#111827" opacity="0.12"/>
  <circle cx="28" cy="27" r="4" fill="#ffffff" opacity="0.9"/>
  <circle cx="40" cy="27" r="4" fill="#ffffff" opacity="0.9"/>
  <path d="M24.5 28.5c2-2 5-3.5 9.5-3.5s7.5 1.5 9.5 3.5" stroke="#0f172a" stroke-width="3" stroke-linecap="round" opacity="0.8"/>
</svg>
